<?xml version="1.0" encoding="UTF-8"?>
<svg class="fill-current" width="14px" height="14px" viewBox="0 0 14 14" version="1.1" xmlns="http://www.w3.org/2000/svg" xmlns:xlink="http://www.w3.org/1999/xlink">
    <!-- Generator: sketchtool 58 (101010) - https://sketch.com -->
    <title>2DC4B40E-5797-4296-BCFB-ACA7AEB363EE</title>
    <desc>Created with sketchtool.</desc>
    <defs>
        <path d="M2.1,12.2 C1.7143,12.2 1.4,11.8864 1.4,11.5 L1.4,5.0614 C1.6422,5.151 1.904,5.2 2.1749,5.2 L12.6,5.2 L12.6,6.6 L11.2,6.6 C10.3558,6.6 9.1,7.1593 9.1,8.7 C9.1,10.2407 10.3558,10.8 11.2,10.8 L12.6,10.8 L12.6,12.2 L2.1,12.2 Z M1.5666,2.6471 C1.6996,2.4903 1.8942,2.4 2.1,2.4 L11.2,2.4 L11.2,3.8 L2.1749,3.8 C1.799,3.8 1.463,3.5466 1.4098,3.2232 C1.3755,3.0104 1.4308,2.806 1.5666,2.6471 L1.5666,2.6471 Z M12.6,9.4 L11.2084,9.4 C10.885,9.3916 10.5,9.2642 10.5,8.7 C10.5,8.1358 10.885,8.0084 11.2,8 L12.6,8 L12.6,9.4 Z M13.3,3.8 L12.6,3.8 L12.6,1.7 C12.6,1.3129 12.2864,1 11.9,1 L2.1,1 C1.4833,1 0.9002,1.2695 0.4998,1.7399 C0.182,2.1137 0.0084,2.5834 0.0007,3.0692 C0,3.0797 0,3.0895 0,3.1 L0,11.5 C0,12.6578 0.9422,13.6 2.1,13.6 L13.3,13.6 C13.6864,13.6 14,13.2871 14,12.9 L14,4.5 C14,4.1129 13.6864,3.8 13.3,3.8 L13.3,3.8 Z" id="path-1"></path>
    </defs>
    <g id="Symbols" stroke="none" stroke-width="1" fill="none" fill-rule="evenodd">
        <g id="icon/balance">
            <mask id="mask-2" fill="white">
                <use xlink:href="#path-1"></use>
            </mask>
            <use id="Mask" fill="#42526E" xlink:href="#path-1"></use>
        </g>
    </g>
</svg>