<?xml version="1.0" encoding="UTF-8"?>
<svg width="14px" height="14px" viewBox="0 0 14 14" version="1.1" xmlns="http://www.w3.org/2000/svg" xmlns:xlink="http://www.w3.org/1999/xlink">
    <!-- Generator: sketchtool 58 (101010) - https://sketch.com -->
    <title>D7A2746C-1643-4A3A-86D2-5080872A11B8</title>
    <desc>Created with sketchtool.</desc>
    <defs>
        <path d="M13.7646104,5.7764 L7.46461043,0.1764 C7.19931043,-0.0588 6.80031043,-0.0588 6.53501043,0.1764 L5.59981043,1.008 L5.59981043,0.7 C5.59981043,0.3136 5.28691043,7.10542736e-15 4.89981043,7.10542736e-15 L2.09981043,7.10542736e-15 C1.71271043,7.10542736e-15 1.39981043,0.3136 1.39981043,0.7 L1.39981043,4.7411 L0.235010426,5.7764 C-0.0540895744,6.034 -0.0799895744,6.4757 0.176910426,6.7655 C0.433110426,7.0539 0.875510426,7.0784 1.16461043,6.8236 L1.39981043,6.6143 L1.39981043,13.3 C1.39981043,13.6864 1.71271043,14 2.09981043,14 L11.8998104,14 C12.2869104,14 12.5998104,13.6864 12.5998104,13.3 L12.5998104,6.6143 L12.8350104,6.8236 C12.9680104,6.9419 13.1346104,7 13.2998104,7 C13.4923104,7 13.6848104,6.9209 13.8227104,6.7655 C14.0796104,6.4757 14.0537104,6.034 13.7646104,5.7764 L13.7646104,5.7764 Z M11.1998104,12.6 L9.79981043,12.6 L9.79981043,9.1 C9.79981043,8.7136 9.48691043,8.4 9.09981043,8.4 L4.89981043,8.4 C4.51271043,8.4 4.19981043,8.7136 4.19981043,9.1 L4.19981043,12.6 L2.79981043,12.6 L2.79981043,5.3697 L6.99981043,1.6366 L11.1998104,5.3697 L11.1998104,12.6 Z M5.59981043,12.6 L8.39981043,12.6 L8.39981043,9.8 L5.59981043,9.8 L5.59981043,12.6 Z M2.79981043,1.4 L4.19981043,1.4 L4.19981043,2.2526 L2.79981043,3.4972 L2.79981043,1.4 Z" id="path-1"></path>
    </defs>
    <g id="Symbols" stroke="none" stroke-width="1" fill="none" fill-rule="evenodd">
        <g id="side-nav/default" transform="translate(-16.000000, -11.000000)">
            <g id="icon/dashboard" transform="translate(16.000000, 11.000000)">
                <mask id="mask-2" fill="white">
                    <use xlink:href="#path-1"></use>
                </mask>
                <use fill="#42526E" fill-rule="evenodd" xlink:href="#path-1"></use>
            </g>
        </g>
    </g>
</svg>